<?xml version="1.0" standalone="no"?>
<!DOCTYPE svg PUBLIC "-//W3C//DTD SVG 20010904//EN"
 "http://www.w3.org/TR/2001/REC-SVG-20010904/DTD/svg10.dtd">
<svg version="1.0" xmlns="http://www.w3.org/2000/svg"
 width="3954.000000pt" height="3954.000000pt" viewBox="0 0 3954.000000 3954.000000"
 preserveAspectRatio="xMidYMid meet">
<metadata>
Created by potrace 1.14, written by Peter Selinger 2001-2017
</metadata>
<g transform="translate(0.000000,3954.000000) scale(0.100000,-0.100000)"
fill="#000000" stroke="none">
<path d="M14440 29376 l10155 -10156 3 7425 2 7425 2878 2 2877 3 -175 126
c-242 174 -542 379 -740 505 -257 165 -456 288 -605 374 -529 308 -979 547
-1390 740 -231 109 -277 130 -280 130 -2 0 -41 18 -87 39 -45 21 -180 80 -298
130 -118 50 -224 96 -235 101 -34 16 -455 180 -461 180 -3 0 -20 6 -37 14 -18
8 -65 26 -104 40 -40 14 -103 37 -140 50 -179 64 -561 195 -588 200 -5 1 -62
19 -125 39 -246 77 -705 207 -970 273 -16 4 -138 33 -270 64 -146 35 -533 118
-580 125 -24 4 -47 8 -50 10 -4 3 -128 26 -270 51 -14 3 -36 7 -50 9 -47 9
-315 54 -355 60 -22 3 -51 7 -65 10 -14 2 -61 9 -105 15 -44 6 -91 13 -105 15
-14 2 -45 7 -70 10 -25 3 -63 8 -85 10 -22 3 -58 8 -80 11 -22 2 -51 7 -65 9
-14 2 -54 7 -90 11 -36 4 -76 8 -90 10 -14 2 -56 6 -95 9 -38 4 -81 8 -95 10
-29 5 -93 11 -200 20 -41 3 -91 8 -110 10 -126 14 -210 16 -211 3 0 -7 -1
-2053 -1 -4546 l-1 -4534 -3801 3800 -3801 3800 -320 122 c-176 67 -329 125
-340 130 -11 5 -198 77 -415 160 -217 83 -405 155 -417 160 -12 5 -106 41
-210 80 -103 39 -197 75 -208 80 -11 5 -69 27 -130 50 -60 23 -119 46 -130 50
-11 5 -69 28 -130 50 -60 23 -119 45 -130 50 -11 5 -87 34 -170 65 -82 31
-175 68 -206 81 -31 13 -62 24 -68 24 -6 0 -19 4 -29 10 -14 8 -412 162 -607
235 -118 44 -1400 536 -1420 545 -11 5 -175 68 -365 140 -190 73 -373 143
-408 156 -35 14 -104 41 -155 60 -51 19 -101 38 -112 43 -11 5 -105 42 -210
81 -104 40 -239 91 -300 115 -60 24 -225 87 -365 140 -140 54 -293 112 -340
130 -47 18 -202 78 -345 133 -143 54 -422 161 -620 237 -198 75 -373 143 -390
150 -30 13 -606 233 -635 243 -8 2 4555 -4566 10140 -10152z"/>
<path d="M32129 32550 c-3 -175 -1 -25712 2 -25715 11 -11 598 588 839 855 47
52 94 103 105 115 11 12 33 37 49 56 16 18 57 66 91 104 35 39 118 135 185
215 67 80 133 157 146 172 147 169 620 789 819 1073 176 252 519 770 590 893
6 9 30 50 55 90 25 40 50 81 55 90 9 15 33 55 80 134 29 48 81 138 103 178 14
25 28 50 32 55 10 13 115 203 198 355 22 41 54 102 72 135 58 107 304 597 352
700 26 55 69 149 97 208 28 60 51 110 51 112 0 2 15 36 34 77 43 93 188 436
251 593 26 66 53 134 61 150 27 63 166 440 238 649 113 323 248 757 337 1081
6 22 15 51 19 65 10 31 110 417 116 445 2 11 15 65 28 120 14 55 27 111 30
125 2 14 16 77 31 140 37 164 70 319 81 380 2 14 7 36 9 50 12 58 43 227 50
270 3 19 8 42 10 50 2 8 7 33 9 55 3 22 12 76 20 120 8 44 18 98 21 120 3 22
10 67 15 100 5 33 12 78 15 100 4 22 8 51 10 65 2 14 7 48 10 75 3 28 10 75
15 105 5 30 12 82 15 115 3 33 8 74 10 90 15 105 32 258 40 350 4 39 8 81 10
95 2 14 7 61 10 105 3 44 8 96 10 115 2 19 6 73 10 120 3 47 8 112 10 145 2
33 7 107 10 165 4 58 8 132 10 165 20 312 27 1277 12 1610 -14 296 -25 490
-42 710 -3 39 -8 102 -10 140 -3 39 -7 86 -10 105 -4 32 -7 60 -20 210 -3 30
-7 70 -10 90 -2 19 -11 96 -20 170 -8 74 -18 153 -20 175 -3 22 -8 56 -10 75
-2 19 -6 52 -9 73 -6 36 -10 66 -21 145 -22 155 -73 463 -107 647 -22 121 -42
231 -45 245 -2 14 -9 45 -14 70 -6 25 -13 56 -15 70 -4 23 -20 99 -61 285 -20
94 -182 752 -193 790 -6 17 -43 147 -84 290 -127 444 -237 777 -418 1265 -79
213 -231 596 -268 677 -11 24 -20 45 -20 48 0 5 -110 255 -151 343 -16 34 -29
64 -29 66 0 2 -27 61 -60 131 -33 70 -60 129 -60 131 0 7 -284 573 -342 683
-29 53 -70 130 -91 171 -22 41 -49 89 -59 105 -10 17 -22 39 -27 50 -6 11 -21
38 -34 59 l-25 40 0 -5915 c-1 -6678 0 -5999 -9 -5998 -27 4 -30 -6 -31 -91
-1 -83 0 -90 18 -90 25 0 25 -9 1 -96 -36 -133 -88 -224 -187 -326 -54 -55
-152 -128 -172 -128 -6 0 -12 -4 -14 -9 -4 -11 -170 -68 -223 -76 -263 -40
-534 72 -705 292 -45 58 -97 170 -120 262 l-22 84 0 7150 0 7150 -186 231
c-102 127 -188 233 -192 236 -3 3 -51 59 -107 125 -55 66 -110 131 -122 145
-13 14 -34 39 -48 55 -29 33 -259 290 -283 316 -8 8 -69 74 -135 145 -66 71
-243 252 -392 404 -267 268 -273 273 -274 240z"/>
<path d="M7225 32395 c-44 -46 -152 -157 -240 -247 -168 -171 -273 -282 -415
-438 -47 -51 -90 -98 -95 -104 -33 -36 -283 -326 -350 -406 -44 -52 -82 -97
-85 -100 -3 -3 -33 -39 -65 -80 -33 -41 -62 -77 -65 -80 -18 -18 -316 -396
-397 -506 -294 -395 -408 -558 -647 -919 -167 -252 -392 -613 -479 -765 -10
-19 -40 -71 -66 -115 -26 -44 -50 -87 -54 -95 -4 -8 -17 -31 -28 -50 -24 -39
-103 -181 -157 -280 -19 -36 -46 -85 -60 -110 -13 -25 -100 -193 -191 -375
-191 -379 -247 -495 -398 -840 -41 -93 -81 -183 -88 -200 -8 -16 -30 -70 -50
-120 -21 -49 -43 -103 -50 -120 -121 -277 -399 -1053 -514 -1435 -18 -58 -38
-123 -46 -145 -8 -22 -25 -80 -39 -130 -14 -49 -41 -148 -61 -220 -21 -71 -41
-143 -45 -160 -82 -312 -115 -446 -145 -575 -42 -180 -121 -549 -129 -600 -3
-19 -12 -66 -20 -105 -8 -38 -17 -86 -20 -105 -3 -19 -10 -60 -16 -90 -14 -75
-21 -111 -25 -140 -11 -74 -16 -107 -21 -130 -3 -13 -7 -40 -10 -59 -2 -19 -6
-46 -9 -60 -8 -42 -13 -73 -20 -124 -4 -27 -8 -57 -10 -66 -2 -10 -6 -42 -10
-72 -3 -30 -8 -61 -10 -69 -2 -8 -7 -46 -11 -85 -3 -38 -7 -72 -9 -75 -2 -3
-6 -34 -10 -70 -3 -36 -8 -72 -10 -80 -2 -8 -6 -46 -10 -83 -3 -37 -8 -76 -10
-86 -2 -10 -6 -55 -10 -100 -3 -44 -8 -89 -10 -99 -2 -11 -6 -57 -9 -104 -4
-47 -8 -94 -10 -104 -2 -10 -7 -66 -11 -123 -3 -57 -8 -123 -10 -145 -2 -23
-6 -88 -10 -146 -3 -58 -8 -130 -10 -160 -5 -56 -13 -250 -21 -485 -5 -151 -4
-878 0 -1040 4 -125 15 -373 21 -485 13 -221 42 -603 50 -653 2 -12 6 -62 10
-112 4 -49 8 -92 10 -95 2 -3 6 -38 9 -77 3 -39 8 -86 11 -105 6 -45 14 -112
21 -178 3 -30 7 -66 9 -80 3 -14 10 -63 15 -110 6 -47 15 -112 20 -145 5 -33
12 -78 15 -100 3 -22 7 -49 10 -60 2 -11 7 -42 10 -70 4 -27 8 -57 10 -65 3
-8 7 -33 10 -55 3 -22 7 -49 10 -60 2 -11 7 -42 11 -70 3 -27 8 -53 10 -56 2
-3 8 -34 14 -70 14 -91 17 -105 55 -294 18 -93 36 -181 39 -195 17 -89 29
-144 50 -231 8 -37 17 -78 20 -90 2 -13 9 -44 16 -69 7 -25 13 -49 14 -55 20
-92 31 -142 47 -202 11 -40 22 -80 24 -90 11 -57 66 -261 117 -438 22 -77 41
-147 43 -155 4 -17 25 -85 79 -265 139 -455 434 -1273 567 -1572 11 -23 19
-44 19 -46 0 -6 210 -485 254 -579 20 -42 36 -79 36 -81 0 -2 -10 -2 -23 0
-19 4 -25 -1 -34 -31 -11 -36 -11 -37 25 -52 25 -10 42 -12 52 -6 12 8 38 -37
146 -252 121 -242 221 -436 328 -637 24 -44 46 -77 48 -72 2 4 4 2647 3 5873
-1 5529 -3 5870 -19 5945 -54 247 23 515 201 701 56 59 135 124 151 124 6 0
12 3 14 8 6 15 135 71 213 93 103 29 276 31 380 4 374 -95 624 -423 610 -800
-2 -55 -12 -131 -22 -170 -17 -68 -18 -309 -18 -7085 l0 -7015 85 -106 c47
-58 99 -123 115 -145 48 -62 435 -525 475 -569 21 -22 79 -87 130 -145 261
-295 843 -900 866 -900 5 0 8 4791 7 12753 -1 7013 -2 12762 -2 12775 -1 12
-4 21 -8 20 -5 0 -44 -38 -88 -83z"/>
<path d="M15002 12718 c0 -4088 -1 -7443 -1 -7455 l-1 -23 -2841 0 -2841 0 63
-47 c152 -111 655 -452 815 -550 10 -7 98 -61 194 -121 312 -195 674 -403
1054 -607 203 -108 710 -357 916 -450 58 -26 130 -58 160 -72 436 -199 1063
-442 1625 -628 308 -103 539 -173 935 -284 263 -74 858 -215 1130 -267 14 -3
68 -14 120 -24 52 -11 111 -22 130 -25 19 -3 42 -8 50 -10 8 -2 33 -6 55 -10
22 -3 47 -7 55 -10 8 -2 31 -7 50 -9 19 -3 88 -14 152 -25 64 -11 136 -23 160
-26 24 -3 55 -8 71 -11 15 -2 39 -6 55 -8 15 -3 46 -8 69 -11 23 -3 57 -8 75
-11 18 -2 47 -6 63 -8 99 -13 133 -17 155 -21 14 -3 48 -7 75 -10 28 -3 64 -7
80 -10 17 -2 62 -7 100 -10 39 -4 77 -8 85 -10 8 -2 53 -7 100 -11 47 -3 94
-8 105 -10 11 -2 54 -7 95 -10 l75 -6 0 4896 c0 2693 2 4896 4 4896 2 0 1443
-1440 3203 -3200 1760 -1760 3193 -3200 3185 -3200 -9 0 -16 -12 -19 -30 -5
-34 0 -44 26 -53 11 -4 16 -13 12 -22 -3 -8 -2 -15 2 -16 53 -5 75 -2 81 12 4
12 256 -234 988 -966 834 -834 981 -985 968 -995 -12 -10 -13 -16 -4 -27 10
-11 15 -11 33 6 l21 20 455 -175 c250 -97 466 -179 480 -184 14 -4 212 -80
440 -168 837 -323 1106 -426 1145 -439 22 -7 49 -18 60 -23 11 -5 344 -134
739 -285 396 -152 747 -286 780 -300 34 -13 205 -78 381 -145 176 -67 329
-126 340 -130 11 -5 198 -77 415 -160 217 -83 411 -157 430 -165 19 -7 76 -29
125 -48 50 -19 137 -53 195 -75 58 -23 283 -109 500 -192 217 -83 404 -154
415 -159 11 -5 47 -19 80 -31 33 -11 69 -25 80 -30 20 -9 233 -91 350 -135 33
-12 215 -82 405 -155 320 -124 398 -154 585 -224 l70 -27 -10075 10076 c-5541
5541 -10075 10075 -10076 10075 0 0 -1 -3345 -2 -7432z"/>
</g>
</svg>
