<?xml version="1.0" standalone="no"?>
<!DOCTYPE svg PUBLIC "-//W3C//DTD SVG 20010904//EN"
 "http://www.w3.org/TR/2001/REC-SVG-20010904/DTD/svg10.dtd">
<svg version="1.0" xmlns="http://www.w3.org/2000/svg"
 width="1000.000000pt" height="1000.000000pt" viewBox="0 0 1000.000000 1000.000000"
 preserveAspectRatio="xMidYMid meet">
<metadata>
Created by potrace 1.14, written by Peter Selinger 2001-2017
</metadata>
<g transform="translate(0.000000,1000.000000) scale(0.100000,-0.100000)"
fill="#000000" stroke="none">
<path d="M4679 9916 c-2 -2 -49 -7 -104 -10 -55 -4 -109 -9 -120 -11 -11 -2
-42 -7 -70 -10 -109 -12 -196 -26 -315 -50 -14 -3 -38 -8 -55 -11 -16 -3 -64
-14 -105 -25 -41 -11 -82 -21 -90 -23 -128 -31 -402 -126 -565 -196 -66 -28
-318 -153 -375 -186 -285 -163 -483 -302 -712 -501 -389 -338 -717 -751 -961
-1214 -108 -205 -257 -565 -293 -709 -2 -8 -13 -46 -24 -85 -23 -79 -76 -302
-85 -355 -3 -19 -10 -57 -15 -85 -10 -56 -21 -125 -26 -170 -8 -82 -14 -134
-20 -175 -9 -74 -12 -579 -4 -660 4 -41 11 -107 14 -145 8 -77 11 -104 21
-167 4 -24 8 -55 11 -70 9 -60 15 -94 19 -108 2 -8 7 -31 10 -50 3 -19 10 -51
15 -70 5 -19 11 -47 14 -61 7 -43 63 -238 99 -350 111 -337 334 -785 519
-1044 192 -267 299 -394 498 -594 143 -143 248 -234 480 -414 49 -39 272 -184
370 -241 100 -59 408 -216 424 -216 3 0 29 -11 58 -24 139 -63 499 -184 602
-202 16 -3 32 -7 36 -9 4 -2 22 -7 41 -10 19 -3 63 -12 99 -20 55 -12 199 -37
290 -50 14 -2 59 -6 100 -10 41 -4 89 -9 105 -12 53 -8 557 -10 640 -3 44 5
114 11 155 14 41 4 82 9 90 11 8 2 40 7 70 10 45 5 138 22 285 51 156 30 517
141 650 199 17 7 79 34 140 60 800 345 1497 973 1945 1752 62 108 206 396 221
443 4 14 21 57 38 97 68 163 164 480 197 648 2 11 8 43 14 70 23 110 21 102
40 240 6 44 13 95 15 113 27 189 27 733 0 912 -2 14 -6 51 -9 82 -4 31 -15
110 -26 175 -131 769 -484 1499 -1011 2088 -162 180 -443 437 -603 550 -16 11
-40 29 -55 41 -145 116 -519 332 -746 431 -251 110 -591 224 -770 259 -11 2
-42 8 -70 14 -114 23 -188 36 -320 55 -138 20 -268 28 -501 31 -150 1 -274 1
-275 0z"/>
</g>
</svg>
